<svg width="720" height="376" viewBox="0 0 720 376" xmlns="http://www.w3.org/2000/svg">
<style><![CDATA[text{font-family:-apple-system,BlinkMacSystemFont,Segoe UI,Roboto,Ubuntu,Helvetica Neue,Arial,Noto Sans,sans-serif}]]></style>
<rect width="720" height="376" rx="16" fill="#0d1117"/>
<rect x="8" y="8" width="704" height="360" rx="14" fill="#161b22" stroke="#30363d"/>
<text x="24" y="40" font-size="20" fill="#c9d1d9" font-weight="600">Top Spotify Tracks</text>
<text x="24" y="64" font-size="13" fill="#8b949e">Last 4 weeks · Updated 2025-09-21 18:24 UTC</text>
<circle cx="36" cy="90" r="11" fill="#58a6ff"/>
<text x="36" y="94" text-anchor="middle" font-size="12" fill="#0d1117" font-weight="700">1</text>
<a href="https://open.spotify.com/track/1ZSleGniKMWNrWvK5cGALO" target="_blank" rel="noopener noreferrer">
<text x="56" y="100" font-size="14" fill="#e6edf3" font-weight="600">路過人間 (電視劇《我們與惡的距離》插曲)</text>
</a>
<text x="56" y="118" font-size="12" fill="#8b949e">Yisa Yu</text>
<rect x="56" y="124" width="540" height="8" rx="4" fill="#30363d"/>
<rect x="56" y="124" width="540" height="8" rx="4" fill="#58a6ff"/>
<circle cx="36" cy="138" r="11" fill="#58a6ff"/>
<text x="36" y="142" text-anchor="middle" font-size="12" fill="#0d1117" font-weight="700">2</text>
<a href="https://open.spotify.com/track/3eIovUMhirNN6btJbpzNqD" target="_blank" rel="noopener noreferrer">
<text x="56" y="148" font-size="14" fill="#e6edf3" font-weight="600">孽海记</text>
</a>
<text x="56" y="166" font-size="12" fill="#8b949e">黄诗扶</text>
<rect x="56" y="172" width="540" height="8" rx="4" fill="#30363d"/>
<rect x="56" y="172" width="475" height="8" rx="4" fill="#58a6ff"/>
<circle cx="36" cy="186" r="11" fill="#58a6ff"/>
<text x="36" y="190" text-anchor="middle" font-size="12" fill="#0d1117" font-weight="700">3</text>
<a href="https://open.spotify.com/track/3kOZsJz3crGIWWHeoCNa0O" target="_blank" rel="noopener noreferrer">
<text x="56" y="196" font-size="14" fill="#e6edf3" font-weight="600">落花成泥 - 电视剧《芸汐传》推广曲</text>
</a>
<text x="56" y="214" font-size="12" fill="#8b949e">鞠婧祎</text>
<rect x="56" y="220" width="540" height="8" rx="4" fill="#30363d"/>
<rect x="56" y="220" width="410" height="8" rx="4" fill="#58a6ff"/>
<circle cx="36" cy="234" r="11" fill="#58a6ff"/>
<text x="36" y="238" text-anchor="middle" font-size="12" fill="#0d1117" font-weight="700">4</text>
<a href="https://open.spotify.com/track/2gttnS8fWnDwziLFt2TLEi" target="_blank" rel="noopener noreferrer">
<text x="56" y="244" font-size="14" fill="#e6edf3" font-weight="600">百战成诗2023 - 现场版</text>
</a>
<text x="56" y="262" font-size="12" fill="#8b949e">令狐襄儿, AG超玩会梦泪, 晃儿, 帝听sakya, 顾知行, 晴愔, 纪粹希, 于冬然, 呦猫UNEKO</text>
<rect x="56" y="268" width="540" height="8" rx="4" fill="#30363d"/>
<rect x="56" y="268" width="345" height="8" rx="4" fill="#58a6ff"/>
<circle cx="36" cy="282" r="11" fill="#58a6ff"/>
<text x="36" y="286" text-anchor="middle" font-size="12" fill="#0d1117" font-weight="700">5</text>
<a href="https://open.spotify.com/track/5A9BOP4WTk2UayDlMb8w98" target="_blank" rel="noopener noreferrer">
<text x="56" y="292" font-size="14" fill="#e6edf3" font-weight="600">春三月</text>
</a>
<text x="56" y="310" font-size="12" fill="#8b949e">司南</text>
<rect x="56" y="316" width="540" height="8" rx="4" fill="#30363d"/>
<rect x="56" y="316" width="280" height="8" rx="4" fill="#58a6ff"/>
</svg>