<svg width="1080" height="376" viewBox="0 0 1080 376" xmlns="http://www.w3.org/2000/svg">
<style><![CDATA[text{font-family:-apple-system,BlinkMacSystemFont,Segoe UI,Roboto,Ubuntu,Helvetica Neue,Arial,Noto Sans,sans-serif}]]></style>
<rect width="1080" height="376" rx="16" fill="#0d1117"/>
<rect x="8" y="8" width="1064" height="360" rx="14" fill="#161b22" stroke="#A9DFBF"/>
<text x="24" y="40" font-size="20" fill="#c9d1d9" font-weight="600">Top Spotify Tracks</text>
<text x="24" y="64" font-size="13" fill="#8b949e">Last 4 weeks · Updated 2025-09-02 18:25 UTC</text>
<circle cx="36" cy="90" r="11" fill="#1D8348"/>
<text x="36" y="94" text-anchor="middle" font-size="12" fill="#0d1117" font-weight="700">1</text>
<a href="https://open.spotify.com/track/1ZSleGniKMWNrWvK5cGALO" target="_blank" rel="noopener noreferrer">
<text x="56" y="100" font-size="14" fill="#e6edf3" font-weight="600">路過人間 (電視劇《我們與惡的距離》插曲)</text>
</a>
<text x="56" y="118" font-size="12" fill="#8b949e">Yisa Yu</text>
<rect x="56" y="124" width="918" height="8" rx="4" fill="#A9DFBF"/>
<rect x="56" y="124" width="918" height="8" rx="4" fill="#1D8348"/>
<circle cx="36" cy="138" r="11" fill="#1D8348"/>
<text x="36" y="142" text-anchor="middle" font-size="12" fill="#0d1117" font-weight="700">2</text>
<a href="https://open.spotify.com/track/1SPZzj8QzOwZoAGKXMGLGJ" target="_blank" rel="noopener noreferrer">
<text x="56" y="148" font-size="14" fill="#e6edf3" font-weight="600">誠實地想你</text>
</a>
<text x="56" y="166" font-size="12" fill="#8b949e">Amber Kuo</text>
<rect x="56" y="172" width="918" height="8" rx="4" fill="#A9DFBF"/>
<rect x="56" y="172" width="807" height="8" rx="4" fill="#1D8348"/>
<circle cx="36" cy="186" r="11" fill="#1D8348"/>
<text x="36" y="190" text-anchor="middle" font-size="12" fill="#0d1117" font-weight="700">3</text>
<a href="https://open.spotify.com/track/6jTK3YxlFysC8g0Ye9tbPK" target="_blank" rel="noopener noreferrer">
<text x="56" y="196" font-size="14" fill="#e6edf3" font-weight="600">梦回还</text>
</a>
<text x="56" y="214" font-size="12" fill="#8b949e">呦猫UNEKO</text>
<rect x="56" y="220" width="918" height="8" rx="4" fill="#A9DFBF"/>
<rect x="56" y="220" width="697" height="8" rx="4" fill="#1D8348"/>
<circle cx="36" cy="234" r="11" fill="#1D8348"/>
<text x="36" y="238" text-anchor="middle" font-size="12" fill="#0d1117" font-weight="700">4</text>
<a href="https://open.spotify.com/track/3kOZsJz3crGIWWHeoCNa0O" target="_blank" rel="noopener noreferrer">
<text x="56" y="244" font-size="14" fill="#e6edf3" font-weight="600">落花成泥 - 电视剧《芸汐传》推广曲</text>
</a>
<text x="56" y="262" font-size="12" fill="#8b949e">鞠婧祎</text>
<rect x="56" y="268" width="918" height="8" rx="4" fill="#A9DFBF"/>
<rect x="56" y="268" width="587" height="8" rx="4" fill="#1D8348"/>
<circle cx="36" cy="282" r="11" fill="#1D8348"/>
<text x="36" y="286" text-anchor="middle" font-size="12" fill="#0d1117" font-weight="700">5</text>
<a href="https://open.spotify.com/track/1amowbJ9HHFFSFdg2ubM7G" target="_blank" rel="noopener noreferrer">
<text x="56" y="292" font-size="14" fill="#e6edf3" font-weight="600">The Reasons of My Smiles</text>
</a>
<text x="56" y="310" font-size="12" fill="#8b949e">BSS</text>
<rect x="56" y="316" width="918" height="8" rx="4" fill="#A9DFBF"/>
<rect x="56" y="316" width="477" height="8" rx="4" fill="#1D8348"/>
</svg>