<svg width="360" height="472" viewBox="0 0 360 472" xmlns="http://www.w3.org/2000/svg">
<style><![CDATA[text{font-family:-apple-system,BlinkMacSystemFont,Segoe UI,Roboto,Ubuntu,Helvetica Neue,Arial,Noto Sans,sans-serif}]]></style>
<rect width="360" height="472" rx="16" fill="#0d0d1a"/>
<rect x="8" y="8" width="344" height="456" rx="14" fill="#1b1b2f" stroke="#3a3a50"/>
<text x="24" y="40" font-size="20" fill="#d0c0ff" font-weight="600">Top Spotify Tracks</text>
<text x="24" y="64" font-size="13" fill="#b0a0ff">Last 4 weeks · Updated 2025-08-29 07:44 UTC</text>
<circle cx="36" cy="90" r="11" fill="#a070ff"/>
<text x="36" y="94" text-anchor="middle" font-size="12" fill="#0d0d1a" font-weight="700">1</text>
<a href="https://open.spotify.com/track/1ZSleGniKMWNrWvK5cGALO" target="_blank" rel="noopener noreferrer">
<text x="56" y="100" font-size="14" fill="#e0dfff" font-weight="600">路過人間 (電視劇《我們與惡的距離》插曲)</text>
</a>
<text x="56" y="118" font-size="12" fill="#b0a0ff">Yisa Yu</text>
<rect x="56" y="124" width="270" height="8" rx="4" fill="#3a3a50"/>
<rect x="56" y="124" width="270" height="8" rx="4" fill="#a070ff"/>
<circle cx="36" cy="138" r="11" fill="#a070ff"/>
<text x="36" y="142" text-anchor="middle" font-size="12" fill="#0d0d1a" font-weight="700">2</text>
<a href="https://open.spotify.com/track/1SPZzj8QzOwZoAGKXMGLGJ" target="_blank" rel="noopener noreferrer">
<text x="56" y="148" font-size="14" fill="#e0dfff" font-weight="600">誠實地想你</text>
</a>
<text x="56" y="166" font-size="12" fill="#b0a0ff">Amber Kuo</text>
<rect x="56" y="172" width="270" height="8" rx="4" fill="#3a3a50"/>
<rect x="56" y="172" width="237" height="8" rx="4" fill="#a070ff"/>
<circle cx="36" cy="186" r="11" fill="#a070ff"/>
<text x="36" y="190" text-anchor="middle" font-size="12" fill="#0d0d1a" font-weight="700">3</text>
<a href="https://open.spotify.com/track/6jTK3YxlFysC8g0Ye9tbPK" target="_blank" rel="noopener noreferrer">
<text x="56" y="196" font-size="14" fill="#e0dfff" font-weight="600">梦回还</text>
</a>
<text x="56" y="214" font-size="12" fill="#b0a0ff">呦猫UNEKO</text>
<rect x="56" y="220" width="270" height="8" rx="4" fill="#3a3a50"/>
<rect x="56" y="220" width="205" height="8" rx="4" fill="#a070ff"/>
<circle cx="36" cy="234" r="11" fill="#a070ff"/>
<text x="36" y="238" text-anchor="middle" font-size="12" fill="#0d0d1a" font-weight="700">4</text>
<a href="https://open.spotify.com/track/3kOZsJz3crGIWWHeoCNa0O" target="_blank" rel="noopener noreferrer">
<text x="56" y="244" font-size="14" fill="#e0dfff" font-weight="600">落花成泥 - 电视剧《芸汐传》推广曲</text>
</a>
<text x="56" y="262" font-size="12" fill="#b0a0ff">鞠婧祎</text>
<rect x="56" y="268" width="270" height="8" rx="4" fill="#3a3a50"/>
<rect x="56" y="268" width="172" height="8" rx="4" fill="#a070ff"/>
<circle cx="36" cy="282" r="11" fill="#a070ff"/>
<text x="36" y="286" text-anchor="middle" font-size="12" fill="#0d0d1a" font-weight="700">5</text>
<a href="https://open.spotify.com/track/1amowbJ9HHFFSFdg2ubM7G" target="_blank" rel="noopener noreferrer">
<text x="56" y="292" font-size="14" fill="#e0dfff" font-weight="600">The Reasons of My Smiles</text>
</a>
<text x="56" y="310" font-size="12" fill="#b0a0ff">BSS</text>
<rect x="56" y="316" width="270" height="8" rx="4" fill="#3a3a50"/>
<rect x="56" y="316" width="140" height="8" rx="4" fill="#a070ff"/>
<circle cx="36" cy="330" r="11" fill="#a070ff"/>
<text x="36" y="334" text-anchor="middle" font-size="12" fill="#0d0d1a" font-weight="700">6</text>
<a href="https://open.spotify.com/track/1MAv2SJPGVVDHyFlhflmYR" target="_blank" rel="noopener noreferrer">
<text x="56" y="340" font-size="14" fill="#e0dfff" font-weight="600">親愛的那不是愛情</text>
</a>
<text x="56" y="358" font-size="12" fill="#b0a0ff">Angela Chang</text>
<rect x="56" y="364" width="270" height="8" rx="4" fill="#3a3a50"/>
<rect x="56" y="364" width="108" height="8" rx="4" fill="#a070ff"/>
<circle cx="36" cy="378" r="11" fill="#a070ff"/>
<text x="36" y="382" text-anchor="middle" font-size="12" fill="#0d0d1a" font-weight="700">7</text>
<a href="https://open.spotify.com/track/1K30lsrpvTR0ytSICU2Z3X" target="_blank" rel="noopener noreferrer">
<text x="56" y="388" font-size="14" fill="#e0dfff" font-weight="600">回音</text>
</a>
<text x="56" y="406" font-size="12" fill="#b0a0ff">余又</text>
<rect x="56" y="412" width="270" height="8" rx="4" fill="#3a3a50"/>
<rect x="56" y="412" width="81" height="8" rx="4" fill="#a070ff"/>
</svg>