<svg width="1080" height="376" viewBox="0 0 1080 376" xmlns="http://www.w3.org/2000/svg">
<style><![CDATA[text{font-family:-apple-system,BlinkMacSystemFont,Segoe UI,Roboto,Ubuntu,Helvetica Neue,Arial,Noto Sans,sans-serif}]]></style>
<rect width="1080" height="376" rx="16" fill="#0d0d1a"/>
<rect x="8" y="8" width="1064" height="360" rx="14" fill="#1b1b2f" stroke="#3a3a50"/>
<text x="24" y="40" font-size="20" fill="#d0c0ff" font-weight="600">Top Spotify Tracks</text>
<text x="24" y="64" font-size="13" fill="#b0a0ff">Last 4 weeks · Updated 2026-01-24 12:41 UTC</text>
<circle cx="36" cy="90" r="11" fill="#a070ff"/>
<text x="36" y="94" text-anchor="middle" font-size="12" fill="#0d0d1a" font-weight="700">1</text>
<a href="https://open.spotify.com/track/3lePQ8c4jq7bTePsXEmslh" target="_blank" rel="noopener noreferrer">
<text x="56" y="100" font-size="14" fill="#e0dfff" font-weight="600">是风动</text>
</a>
<text x="56" y="118" font-size="12" fill="#b0a0ff">銀臨, 河图</text>
<rect x="56" y="124" width="918" height="8" rx="4" fill="#3a3a50"/>
<rect x="56" y="124" width="918" height="8" rx="4" fill="#a070ff"/>
<circle cx="36" cy="138" r="11" fill="#a070ff"/>
<text x="36" y="142" text-anchor="middle" font-size="12" fill="#0d0d1a" font-weight="700">2</text>
<a href="https://open.spotify.com/track/6usmG2MoD0C0Lc2pNgCVWV" target="_blank" rel="noopener noreferrer">
<text x="56" y="148" font-size="14" fill="#e0dfff" font-weight="600">Cry on My Shoulder</text>
</a>
<text x="56" y="166" font-size="12" fill="#b0a0ff">Deutschland sucht den Superstar</text>
<rect x="56" y="172" width="918" height="8" rx="4" fill="#3a3a50"/>
<rect x="56" y="172" width="807" height="8" rx="4" fill="#a070ff"/>
<circle cx="36" cy="186" r="11" fill="#a070ff"/>
<text x="36" y="190" text-anchor="middle" font-size="12" fill="#0d0d1a" font-weight="700">3</text>
<a href="https://open.spotify.com/track/4ToeYifpQaikbYa7krOD6s" target="_blank" rel="noopener noreferrer">
<text x="56" y="196" font-size="14" fill="#e0dfff" font-weight="600">卜卦</text>
</a>
<text x="56" y="214" font-size="12" fill="#b0a0ff">崔子格</text>
<rect x="56" y="220" width="918" height="8" rx="4" fill="#3a3a50"/>
<rect x="56" y="220" width="697" height="8" rx="4" fill="#a070ff"/>
<circle cx="36" cy="234" r="11" fill="#a070ff"/>
<text x="36" y="238" text-anchor="middle" font-size="12" fill="#0d0d1a" font-weight="700">4</text>
<a href="https://open.spotify.com/track/4AmlSf7hye0QVpnHCcEoEw" target="_blank" rel="noopener noreferrer">
<text x="56" y="244" font-size="14" fill="#e0dfff" font-weight="600">城府</text>
</a>
<text x="56" y="262" font-size="12" fill="#b0a0ff">許嵩</text>
<rect x="56" y="268" width="918" height="8" rx="4" fill="#3a3a50"/>
<rect x="56" y="268" width="587" height="8" rx="4" fill="#a070ff"/>
<circle cx="36" cy="282" r="11" fill="#a070ff"/>
<text x="36" y="286" text-anchor="middle" font-size="12" fill="#0d0d1a" font-weight="700">5</text>
<a href="https://open.spotify.com/track/0yYmS4k3R0TTdDhvOBxRVp" target="_blank" rel="noopener noreferrer">
<text x="56" y="292" font-size="14" fill="#e0dfff" font-weight="600">愛的雙重 魔力</text>
</a>
<text x="56" y="310" font-size="12" fill="#b0a0ff">BY2</text>
<rect x="56" y="316" width="918" height="8" rx="4" fill="#3a3a50"/>
<rect x="56" y="316" width="477" height="8" rx="4" fill="#a070ff"/>
</svg>