<svg width="360" height="376" viewBox="0 0 360 376" xmlns="http://www.w3.org/2000/svg">
<style><![CDATA[text{font-family:-apple-system,BlinkMacSystemFont,Segoe UI,Roboto,Ubuntu,Helvetica Neue,Arial,Noto Sans,sans-serif}]]></style>
<rect width="360" height="376" rx="16" fill="#0d0d1a"/>
<rect x="8" y="8" width="344" height="360" rx="14" fill="#1b1b2f" stroke="#3a3a50"/>
<text x="24" y="40" font-size="20" fill="#d0c0ff" font-weight="600">Top Spotify Tracks</text>
<text x="24" y="64" font-size="13" fill="#b0a0ff">Last 4 weeks · Updated 2026-01-14 18:34 UTC</text>
<circle cx="36" cy="90" r="11" fill="#a070ff"/>
<text x="36" y="94" text-anchor="middle" font-size="12" fill="#0d0d1a" font-weight="700">1</text>
<a href="https://open.spotify.com/track/3lePQ8c4jq7bTePsXEmslh" target="_blank" rel="noopener noreferrer">
<text x="56" y="100" font-size="14" fill="#e0dfff" font-weight="600">是风动</text>
</a>
<text x="56" y="118" font-size="12" fill="#b0a0ff">銀臨, 河图</text>
<rect x="56" y="124" width="270" height="8" rx="4" fill="#3a3a50"/>
<rect x="56" y="124" width="270" height="8" rx="4" fill="#a070ff"/>
<circle cx="36" cy="138" r="11" fill="#a070ff"/>
<text x="36" y="142" text-anchor="middle" font-size="12" fill="#0d0d1a" font-weight="700">2</text>
<a href="https://open.spotify.com/track/0RW2LEfGQK5BaIho6sSLqf" target="_blank" rel="noopener noreferrer">
<text x="56" y="148" font-size="14" fill="#e0dfff" font-weight="600">以爱为囚</text>
</a>
<text x="56" y="166" font-size="12" fill="#b0a0ff">满舒克</text>
<rect x="56" y="172" width="270" height="8" rx="4" fill="#3a3a50"/>
<rect x="56" y="172" width="237" height="8" rx="4" fill="#a070ff"/>
<circle cx="36" cy="186" r="11" fill="#a070ff"/>
<text x="36" y="190" text-anchor="middle" font-size="12" fill="#0d0d1a" font-weight="700">3</text>
<a href="https://open.spotify.com/track/4ToeYifpQaikbYa7krOD6s" target="_blank" rel="noopener noreferrer">
<text x="56" y="196" font-size="14" fill="#e0dfff" font-weight="600">卜卦</text>
</a>
<text x="56" y="214" font-size="12" fill="#b0a0ff">崔子格</text>
<rect x="56" y="220" width="270" height="8" rx="4" fill="#3a3a50"/>
<rect x="56" y="220" width="205" height="8" rx="4" fill="#a070ff"/>
<circle cx="36" cy="234" r="11" fill="#a070ff"/>
<text x="36" y="238" text-anchor="middle" font-size="12" fill="#0d0d1a" font-weight="700">4</text>
<a href="https://open.spotify.com/track/5HAMeMgu9hGL5a8ZwNz6cp" target="_blank" rel="noopener noreferrer">
<text x="56" y="244" font-size="14" fill="#e0dfff" font-weight="600">禁區</text>
</a>
<text x="56" y="262" font-size="12" fill="#b0a0ff">黃齡</text>
<rect x="56" y="268" width="270" height="8" rx="4" fill="#3a3a50"/>
<rect x="56" y="268" width="172" height="8" rx="4" fill="#a070ff"/>
<circle cx="36" cy="282" r="11" fill="#a070ff"/>
<text x="36" y="286" text-anchor="middle" font-size="12" fill="#0d0d1a" font-weight="700">5</text>
<a href="https://open.spotify.com/track/6IF65dJzfmPcX7jwDegwoo" target="_blank" rel="noopener noreferrer">
<text x="56" y="292" font-size="14" fill="#e0dfff" font-weight="600">如果可以 - Live</text>
</a>
<text x="56" y="310" font-size="12" fill="#b0a0ff">Silence Wang, LaLa Hsu</text>
<rect x="56" y="316" width="270" height="8" rx="4" fill="#3a3a50"/>
<rect x="56" y="316" width="140" height="8" rx="4" fill="#a070ff"/>
</svg>