<svg width="1080" height="472" viewBox="0 0 1080 472" xmlns="http://www.w3.org/2000/svg">
<style><![CDATA[text{font-family:-apple-system,BlinkMacSystemFont,Segoe UI,Roboto,Ubuntu,Helvetica Neue,Arial,Noto Sans,sans-serif}]]></style>
<rect width="1080" height="472" rx="16" fill="#1c1c1c"/>
<rect x="8" y="8" width="1064" height="456" rx="14" fill="#2e2e2e" stroke="#ffcccb"/>
<text x="24" y="40" font-size="20" fill="#f5f5f5" font-weight="600">Top Spotify Tracks</text>
<text x="24" y="64" font-size="13" fill="#b0b0b0">Last 4 weeks · Updated 2025-08-29 07:44 UTC</text>
<circle cx="36" cy="90" r="11" fill="#ff6f61"/>
<text x="36" y="94" text-anchor="middle" font-size="12" fill="#1c1c1c" font-weight="700">1</text>
<a href="https://open.spotify.com/track/1ZSleGniKMWNrWvK5cGALO" target="_blank" rel="noopener noreferrer">
<text x="56" y="100" font-size="14" fill="#e0e0e0" font-weight="600">路過人間 (電視劇《我們與惡的距離》插曲)</text>
</a>
<text x="56" y="118" font-size="12" fill="#b0b0b0">Yisa Yu</text>
<rect x="56" y="124" width="918" height="8" rx="4" fill="#ffcccb"/>
<rect x="56" y="124" width="918" height="8" rx="4" fill="#ff6f61"/>
<circle cx="36" cy="138" r="11" fill="#ff6f61"/>
<text x="36" y="142" text-anchor="middle" font-size="12" fill="#1c1c1c" font-weight="700">2</text>
<a href="https://open.spotify.com/track/1SPZzj8QzOwZoAGKXMGLGJ" target="_blank" rel="noopener noreferrer">
<text x="56" y="148" font-size="14" fill="#e0e0e0" font-weight="600">誠實地想你</text>
</a>
<text x="56" y="166" font-size="12" fill="#b0b0b0">Amber Kuo</text>
<rect x="56" y="172" width="918" height="8" rx="4" fill="#ffcccb"/>
<rect x="56" y="172" width="807" height="8" rx="4" fill="#ff6f61"/>
<circle cx="36" cy="186" r="11" fill="#ff6f61"/>
<text x="36" y="190" text-anchor="middle" font-size="12" fill="#1c1c1c" font-weight="700">3</text>
<a href="https://open.spotify.com/track/6jTK3YxlFysC8g0Ye9tbPK" target="_blank" rel="noopener noreferrer">
<text x="56" y="196" font-size="14" fill="#e0e0e0" font-weight="600">梦回还</text>
</a>
<text x="56" y="214" font-size="12" fill="#b0b0b0">呦猫UNEKO</text>
<rect x="56" y="220" width="918" height="8" rx="4" fill="#ffcccb"/>
<rect x="56" y="220" width="697" height="8" rx="4" fill="#ff6f61"/>
<circle cx="36" cy="234" r="11" fill="#ff6f61"/>
<text x="36" y="238" text-anchor="middle" font-size="12" fill="#1c1c1c" font-weight="700">4</text>
<a href="https://open.spotify.com/track/3kOZsJz3crGIWWHeoCNa0O" target="_blank" rel="noopener noreferrer">
<text x="56" y="244" font-size="14" fill="#e0e0e0" font-weight="600">落花成泥 - 电视剧《芸汐传》推广曲</text>
</a>
<text x="56" y="262" font-size="12" fill="#b0b0b0">鞠婧祎</text>
<rect x="56" y="268" width="918" height="8" rx="4" fill="#ffcccb"/>
<rect x="56" y="268" width="587" height="8" rx="4" fill="#ff6f61"/>
<circle cx="36" cy="282" r="11" fill="#ff6f61"/>
<text x="36" y="286" text-anchor="middle" font-size="12" fill="#1c1c1c" font-weight="700">5</text>
<a href="https://open.spotify.com/track/1amowbJ9HHFFSFdg2ubM7G" target="_blank" rel="noopener noreferrer">
<text x="56" y="292" font-size="14" fill="#e0e0e0" font-weight="600">The Reasons of My Smiles</text>
</a>
<text x="56" y="310" font-size="12" fill="#b0b0b0">BSS</text>
<rect x="56" y="316" width="918" height="8" rx="4" fill="#ffcccb"/>
<rect x="56" y="316" width="477" height="8" rx="4" fill="#ff6f61"/>
<circle cx="36" cy="330" r="11" fill="#ff6f61"/>
<text x="36" y="334" text-anchor="middle" font-size="12" fill="#1c1c1c" font-weight="700">6</text>
<a href="https://open.spotify.com/track/1MAv2SJPGVVDHyFlhflmYR" target="_blank" rel="noopener noreferrer">
<text x="56" y="340" font-size="14" fill="#e0e0e0" font-weight="600">親愛的那不是愛情</text>
</a>
<text x="56" y="358" font-size="12" fill="#b0b0b0">Angela Chang</text>
<rect x="56" y="364" width="918" height="8" rx="4" fill="#ffcccb"/>
<rect x="56" y="364" width="367" height="8" rx="4" fill="#ff6f61"/>
<circle cx="36" cy="378" r="11" fill="#ff6f61"/>
<text x="36" y="382" text-anchor="middle" font-size="12" fill="#1c1c1c" font-weight="700">7</text>
<a href="https://open.spotify.com/track/1K30lsrpvTR0ytSICU2Z3X" target="_blank" rel="noopener noreferrer">
<text x="56" y="388" font-size="14" fill="#e0e0e0" font-weight="600">回音</text>
</a>
<text x="56" y="406" font-size="12" fill="#b0b0b0">余又</text>
<rect x="56" y="412" width="918" height="8" rx="4" fill="#ffcccb"/>
<rect x="56" y="412" width="275" height="8" rx="4" fill="#ff6f61"/>
</svg>