<svg width="720" height="376" viewBox="0 0 720 376" xmlns="http://www.w3.org/2000/svg">
<style><![CDATA[text{font-family:-apple-system,BlinkMacSystemFont,Segoe UI,Roboto,Ubuntu,Helvetica Neue,Arial,Noto Sans,sans-serif}]]></style>
<rect width="720" height="376" rx="16" fill="#0f2027"/>
<rect x="8" y="8" width="704" height="360" rx="14" fill="#203a43" stroke="#4dd0e1"/>
<text x="24" y="40" font-size="20" fill="#e0f7fa" font-weight="600">Top Spotify Tracks</text>
<text x="24" y="64" font-size="13" fill="#80deea">Last 4 weeks · Updated 2025-08-25 08:04 UTC</text>
<circle cx="36" cy="90" r="11" fill="#00acc1"/>
<text x="36" y="94" text-anchor="middle" font-size="12" fill="#0f2027" font-weight="700">1</text>
<a href="https://open.spotify.com/track/1ZSleGniKMWNrWvK5cGALO" target="_blank" rel="noopener noreferrer">
<text x="56" y="100" font-size="14" fill="#b2ebf2" font-weight="600">路過人間 (電視劇《我們與惡的距離》插曲)</text>
</a>
<text x="56" y="118" font-size="12" fill="#80deea">Yisa Yu</text>
<rect x="56" y="124" width="512" height="8" rx="4" fill="#4dd0e1"/>
<rect x="56" y="124" width="512" height="8" rx="4" fill="#00acc1"/>
<circle cx="36" cy="138" r="11" fill="#00acc1"/>
<text x="36" y="142" text-anchor="middle" font-size="12" fill="#0f2027" font-weight="700">2</text>
<a href="https://open.spotify.com/track/1SPZzj8QzOwZoAGKXMGLGJ" target="_blank" rel="noopener noreferrer">
<text x="56" y="148" font-size="14" fill="#b2ebf2" font-weight="600">誠實地想你</text>
</a>
<text x="56" y="166" font-size="12" fill="#80deea">Amber Kuo</text>
<rect x="56" y="172" width="512" height="8" rx="4" fill="#4dd0e1"/>
<rect x="56" y="172" width="450" height="8" rx="4" fill="#00acc1"/>
<circle cx="36" cy="186" r="11" fill="#00acc1"/>
<text x="36" y="190" text-anchor="middle" font-size="12" fill="#0f2027" font-weight="700">3</text>
<a href="https://open.spotify.com/track/6jTK3YxlFysC8g0Ye9tbPK" target="_blank" rel="noopener noreferrer">
<text x="56" y="196" font-size="14" fill="#b2ebf2" font-weight="600">梦回还</text>
</a>
<text x="56" y="214" font-size="12" fill="#80deea">呦猫UNEKO</text>
<rect x="56" y="220" width="512" height="8" rx="4" fill="#4dd0e1"/>
<rect x="56" y="220" width="389" height="8" rx="4" fill="#00acc1"/>
<circle cx="36" cy="234" r="11" fill="#00acc1"/>
<text x="36" y="238" text-anchor="middle" font-size="12" fill="#0f2027" font-weight="700">4</text>
<a href="https://open.spotify.com/track/1MAv2SJPGVVDHyFlhflmYR" target="_blank" rel="noopener noreferrer">
<text x="56" y="244" font-size="14" fill="#b2ebf2" font-weight="600">親愛的那不是愛情</text>
</a>
<text x="56" y="262" font-size="12" fill="#80deea">Angela Chang</text>
<rect x="56" y="268" width="512" height="8" rx="4" fill="#4dd0e1"/>
<rect x="56" y="268" width="327" height="8" rx="4" fill="#00acc1"/>
<circle cx="36" cy="282" r="11" fill="#00acc1"/>
<text x="36" y="286" text-anchor="middle" font-size="12" fill="#0f2027" font-weight="700">5</text>
<a href="https://open.spotify.com/track/1K30lsrpvTR0ytSICU2Z3X" target="_blank" rel="noopener noreferrer">
<text x="56" y="292" font-size="14" fill="#b2ebf2" font-weight="600">回音</text>
</a>
<text x="56" y="310" font-size="12" fill="#80deea">余又</text>
<rect x="56" y="316" width="512" height="8" rx="4" fill="#4dd0e1"/>
<rect x="56" y="316" width="266" height="8" rx="4" fill="#00acc1"/>
</svg>